<?xml version="1.0" encoding="utf-8"?>
<svg version="1.1" id="Layer_1" xmlns="http://www.w3.org/2000/svg" xmlns:xlink="http://www.w3.org/1999/xlink" x="0px" y="0px"
	 viewBox="590 -500 1792 1792" style="enable-background:new 590 -500 1792 1792;" xml:space="preserve">
<path d="M878-212v32V844v32h32h480h32v-32V-180v-32 M2094,460v-640c0-9.3,0-32,0-32s-22.7,0-32,0h-480c-9.3,0-32,0-32,0s0,22.7,0,32
	v640c0,9.3,0,32,0,32s22.7,0,32,0h480c9.3,0,32,0,32,0S2094,469.3,2094,460z M2254-372v64v1408v64h-64H782h-64v-64V-308v-64"/>
</svg>
